<?xml version="1.0" standalone="no"?>
<!DOCTYPE svg PUBLIC "-//W3C//DTD SVG 20010904//EN"
 "http://www.w3.org/TR/2001/REC-SVG-20010904/DTD/svg10.dtd">
<svg version="1.0" xmlns="http://www.w3.org/2000/svg"
 width="400.000000pt" height="400.000000pt" viewBox="0 0 400.000000 400.000000"
 preserveAspectRatio="xMidYMid meet">
<g transform="translate(2.500000,402.500000) scale(0.100000,-0.100000)"
fill="currentColor" stroke="none">
<path d="M1296 3738 c-11 -44 -8 -48 45 -48 48 0 51 -1 46 -22 -3 -13 -31
-151 -62 -308 -30 -157 -58 -295 -60 -307 -4 -19 -13 -22 -58 -25 -51 -3 -52
-4 -55 -35 l-3 -33 205 0 c196 0 206 1 206 19 0 11 3 26 6 35 5 13 -2 16 -45
16 -28 0 -51 3 -51 8 -1 4 28 152 62 329 l63 323 51 0 c45 0 52 3 58 23 13 48
18 47 -198 47 -203 0 -204 0 -210 -22z"/>
<path d="M1470 2890 c0 -5 7 -10 15 -10 12 0 14 -7 9 -27 -11 -53 -14 -57 -26
-45 -28 28 -95 6 -121 -38 -20 -33 -22 -111 -5 -128 7 -7 28 -12 48 -12 20 0
41 5 48 12 9 9 12 9 12 0 0 -7 13 -12 30 -12 17 0 30 2 30 4 0 2 11 58 25 126
14 68 25 127 25 131 0 5 -20 9 -45 9 -25 0 -45 -4 -45 -10z m0 -135 c0 -48
-19 -93 -42 -101 -31 -9 -41 9 -34 61 12 80 76 114 76 40z"/>
<path d="M1822 2883 c-12 -24 -4 -43 18 -43 23 0 44 26 36 45 -7 21 -43 19
-54 -2z"/>
<path d="M2370 2891 c0 -5 5 -11 11 -13 8 -3 3 -42 -14 -126 l-24 -123 30 3
c30 3 32 6 44 67 15 72 26 91 56 91 18 0 19 -4 14 -57 -4 -32 -10 -68 -13 -80
-6 -21 -3 -23 40 -23 25 0 46 5 46 10 0 6 -6 10 -14 10 -11 0 -12 8 -5 38 12
53 11 106 -3 120 -15 15 -53 16 -79 1 -19 -10 -20 -8 -13 40 l7 51 -42 0 c-22
0 -41 -4 -41 -9z"/>
<path d="M1190 2880 c0 -5 7 -10 15 -10 8 0 15 -4 15 -9 0 -8 -22 -127 -36
-188 -2 -13 -11 -23 -19 -23 -7 0 -17 -4 -20 -10 -4 -6 20 -10 64 -10 41 0 71
4 71 10 0 6 -7 10 -15 10 -19 0 -19 11 0 102 23 115 25 118 40 118 7 0 17 5
20 10 4 6 -20 10 -64 10 -41 0 -71 -4 -71 -10z"/>
<path d="M2216 2845 c-4 -14 -13 -25 -21 -25 -18 0 -20 -17 -3 -22 9 -3 9 -21
-1 -76 -7 -39 -10 -76 -6 -82 12 -19 90 -12 110 10 22 24 2 28 -22 4 -28 -28
-36 -1 -21 72 13 64 16 69 41 72 34 4 36 22 2 22 -22 0 -25 3 -19 25 6 23 3
25 -24 25 -23 0 -31 -5 -36 -25z"/>
<path d="M1600 2811 c0 -5 5 -11 12 -13 10 -4 1 -85 -18 -150 -4 -14 1 -18 25
-18 25 0 32 5 37 28 17 75 27 108 36 120 15 17 58 15 58 -3 0 -22 17 -18 23 5
7 27 27 25 27 -2 -1 -13 -7 -51 -14 -85 l-14 -63 44 0 c40 0 60 13 33 22 -8 3
-7 26 5 82 9 43 16 80 16 82 0 2 -33 4 -73 4 -50 0 -80 -5 -95 -16 -17 -12
-22 -12 -20 -2 2 9 -11 14 -39 16 -24 2 -43 -1 -43 -7z"/>
<path d="M1930 2811 c0 -5 5 -11 12 -13 10 -4 1 -85 -18 -150 -4 -14 1 -18 25
-18 32 0 35 5 47 75 8 53 30 85 56 85 19 0 20 -4 15 -47 -3 -27 -9 -63 -13
-80 -6 -33 -6 -33 34 -33 23 0 44 5 47 10 3 6 -1 10 -10 10 -12 0 -15 5 -11
16 15 38 18 124 6 139 -14 17 -53 20 -80 5 -13 -7 -21 -7 -25 0 -8 13 -85 13
-85 1z"/>
<path d="M1218 2545 l-4 -35 48 0 c26 0 48 -3 48 -7 1 -5 -28 -153 -62 -330
l-63 -323 -52 0 c-36 0 -53 -4 -53 -12 0 -7 -3 -23 -6 -35 l-6 -23 141 0 c106
0 141 3 141 13 0 6 3 22 6 35 6 21 3 22 -45 22 -34 0 -51 4 -51 13 2 42 118
579 123 567 4 -8 35 -130 70 -270 l63 -255 69 0 69 0 174 268 c96 147 176 266
177 265 3 -3 -94 -500 -110 -565 -5 -20 -12 -23 -54 -23 -42 0 -49 -3 -55 -22
-13 -49 -18 -48 199 -48 157 0 205 3 205 13 0 6 3 22 6 35 6 21 3 22 -45 22
-28 0 -51 4 -51 8 0 8 115 589 125 630 5 19 12 22 54 22 50 0 61 9 61 51 0 18
-9 19 -163 19 l-162 0 -164 -255 c-90 -140 -165 -255 -166 -255 -2 0 -31 115
-66 255 l-64 255 -166 0 -167 0 -4 -35z"/>
<path d="M1572 1673 c-12 -24 -4 -43 18 -43 23 0 44 26 36 45 -7 21 -43 19
-54 -2z"/>
<path d="M1972 1673 c-12 -24 -4 -43 18 -43 23 0 44 26 36 45 -7 21 -43 19
-54 -2z"/>
<path d="M1150 1670 c0 -5 7 -10 16 -10 12 0 15 -6 11 -22 -3 -13 -13 -62 -23
-110 -14 -73 -20 -88 -35 -88 -11 0 -19 -4 -19 -10 0 -5 20 -10 45 -10 25 0
45 5 45 10 0 6 -7 10 -16 10 -10 0 -14 6 -10 18 3 9 10 46 16 82 18 100 21
101 44 10 18 -71 25 -86 44 -88 17 -3 32 13 76 82 31 47 57 86 60 86 2 0 0
-17 -4 -37 -5 -21 -13 -64 -20 -95 -7 -37 -16 -58 -25 -58 -8 0 -17 -4 -20
-10 -4 -6 20 -10 64 -10 41 0 71 4 71 10 0 6 -7 10 -15 10 -19 0 -19 11 0 102
23 115 25 118 40 118 7 0 17 5 20 10 4 6 -15 10 -50 10 l-56 0 -51 -80 c-34
-54 -54 -77 -59 -68 -4 7 -15 43 -25 80 l-16 68 -54 0 c-30 0 -54 -4 -54 -10z"/>
<path d="M1536 1601 c-4 -5 -1 -11 6 -13 10 -4 9 -23 -3 -86 l-16 -82 44 0
c39 0 59 13 32 22 -8 3 -7 26 5 82 9 43 16 80 16 82 0 8 -79 4 -84 -5z"/>
<path d="M1680 1601 c0 -5 5 -11 12 -13 10 -4 1 -85 -18 -150 -4 -14 1 -18 25
-18 32 0 35 5 47 75 8 53 30 85 56 85 19 0 20 -4 15 -47 -3 -27 -9 -63 -13
-80 -6 -33 -6 -33 34 -33 23 0 44 5 47 10 3 6 -1 10 -10 10 -12 0 -15 5 -11
16 15 38 18 124 6 139 -14 17 -53 20 -80 5 -13 -7 -21 -7 -25 0 -8 13 -85 13
-85 1z"/>
<path d="M1936 1601 c-4 -5 -1 -11 6 -13 10 -4 9 -23 -3 -86 l-16 -82 44 0
c39 0 59 13 32 22 -8 3 -7 26 5 82 9 43 16 80 16 82 0 8 -79 4 -84 -5z"/>
<path d="M1138 1315 l-4 -35 48 0 c26 0 48 -3 48 -7 1 -5 -28 -153 -62 -330
l-63 -323 -52 0 c-36 0 -53 -4 -53 -12 0 -7 -3 -23 -6 -35 l-6 -23 141 0 c106
0 141 3 141 13 0 6 3 22 6 35 6 21 3 22 -45 22 -34 0 -51 4 -51 13 2 42 118
579 123 567 4 -8 35 -130 70 -270 l63 -255 69 0 69 0 174 268 c96 147 176 266
177 265 3 -3 -94 -500 -110 -565 -5 -20 -12 -23 -54 -23 -42 0 -49 -3 -55 -23
-13 -48 -18 -47 199 -47 157 0 205 3 205 13 0 6 3 22 6 35 6 21 3 22 -45 22
-28 0 -51 4 -51 8 0 8 115 589 125 630 5 19 12 22 54 22 50 0 61 9 61 51 0 18
-9 19 -163 19 l-162 0 -164 -255 c-90 -140 -165 -255 -166 -255 -2 0 -31 115
-66 255 l-64 255 -166 0 -167 0 -4 -35z"/>
<path d="M1462 393 c-12 -24 -4 -43 18 -43 23 0 44 26 36 45 -7 21 -43 19 -54
-2z"/>
<path d="M1950 400 c0 -5 7 -10 15 -10 12 0 14 -7 9 -27 -11 -53 -14 -57 -26
-45 -28 28 -95 6 -121 -38 -20 -33 -22 -111 -5 -128 16 -16 80 -16 96 0 9 9
12 9 12 0 0 -7 13 -12 30 -12 17 0 30 2 30 4 0 2 11 58 25 126 14 68 25 127
25 131 0 5 -20 9 -45 9 -25 0 -45 -4 -45 -10z m0 -135 c0 -48 -19 -93 -42
-101 -31 -9 -41 9 -34 61 12 80 76 114 76 40z"/>
<path d="M1040 390 c0 -5 7 -10 16 -10 12 0 15 -6 11 -22 -3 -13 -13 -62 -23
-110 -14 -73 -20 -88 -35 -88 -11 0 -19 -4 -19 -10 0 -5 20 -10 45 -10 25 0
45 5 45 10 0 6 -7 10 -16 10 -10 0 -14 6 -10 18 3 9 10 46 16 82 18 100 21
101 44 10 18 -71 25 -86 44 -88 17 -3 32 13 76 82 31 47 57 86 60 86 2 0 0
-17 -4 -37 -5 -21 -13 -64 -20 -95 -7 -37 -16 -58 -25 -58 -8 0 -17 -4 -20
-10 -4 -6 20 -10 64 -10 41 0 71 4 71 10 0 6 -7 10 -15 10 -19 0 -19 11 0 102
23 115 25 118 40 118 7 0 17 5 20 10 4 6 -15 10 -50 10 l-56 0 -51 -80 c-34
-54 -54 -77 -59 -68 -4 7 -15 43 -25 80 l-16 68 -54 0 c-30 0 -54 -4 -54 -10z"/>
<path d="M1426 321 c-4 -5 -1 -11 6 -13 10 -4 9 -23 -3 -86 l-16 -82 44 0 c39
0 59 13 32 22 -8 3 -7 26 5 82 9 43 16 80 16 82 0 8 -79 4 -84 -5z"/>
<path d="M1570 321 c0 -5 5 -11 12 -13 10 -4 1 -85 -18 -150 -4 -14 1 -18 25
-18 32 0 35 5 47 75 8 53 30 85 56 85 19 0 20 -4 15 -47 -3 -27 -9 -63 -13
-80 -6 -33 -6 -33 34 -33 23 0 44 5 47 10 3 6 -1 10 -10 10 -12 0 -15 5 -11
16 15 38 18 124 6 139 -14 17 -53 20 -80 5 -13 -7 -21 -7 -25 0 -8 13 -85 13
-85 1z"/>
<path d="M2080 321 c0 -5 5 -11 12 -13 10 -4 1 -85 -18 -150 -4 -14 1 -18 25
-18 32 0 35 5 47 75 8 52 29 85 54 85 24 0 24 -12 6 -98 l-14 -63 31 3 c30 3
32 6 44 67 15 72 26 91 56 91 21 0 21 -6 1 -122 l-7 -38 41 0 c22 0 44 5 47
10 3 6 -1 10 -10 10 -13 0 -16 6 -11 25 16 63 18 115 6 130 -16 19 -59 19 -87
0 -18 -13 -22 -13 -33 0 -14 17 -53 20 -80 5 -13 -7 -21 -7 -25 0 -8 13 -85
13 -85 1z"/>
<path d="M2513 310 c-84 -51 -98 -170 -20 -170 18 0 38 5 45 12 9 9 12 9 12 0
0 -7 16 -12 40 -12 37 0 55 13 28 22 -9 3 -8 23 4 81 8 42 13 79 10 82 -13 13
-90 3 -119 -15z m57 -67 c-14 -63 -31 -89 -55 -79 -28 11 -15 93 20 124 37 32
48 17 35 -45z"/>
<path d="M2696 321 c-4 -5 -1 -11 6 -13 9 -3 8 -29 -6 -108 -10 -58 -20 -110
-23 -117 -4 -9 5 -13 25 -13 31 0 33 2 47 64 4 22 9 26 18 17 6 -6 26 -11 44
-11 43 0 78 34 92 88 20 74 -24 120 -91 94 -16 -6 -28 -6 -28 -1 0 12 -77 12
-84 0z m144 -60 c0 -40 -32 -96 -55 -96 -18 0 -20 6 -18 55 1 43 6 58 23 72
28 23 50 9 50 -31z"/>
</g>
<g transform="translate(0.000000,400.000000) scale(0.100000,-0.100000)"
fill="#32623b" stroke="none">
<path d="M1296 3738 c-11 -44 -8 -48 45 -48 48 0 51 -1 46 -22 -3 -13 -31
-151 -62 -308 -30 -157 -58 -295 -60 -307 -4 -19 -13 -22 -58 -25 -51 -3 -52
-4 -55 -35 l-3 -33 205 0 c196 0 206 1 206 19 0 11 3 26 6 35 5 13 -2 16 -45
16 -28 0 -51 3 -51 8 -1 4 28 152 62 329 l63 323 51 0 c45 0 52 3 58 23 13 48
18 47 -198 47 -203 0 -204 0 -210 -22z"/>
<path d="M1470 2890 c0 -5 7 -10 15 -10 12 0 14 -7 9 -27 -11 -53 -14 -57 -26
-45 -28 28 -95 6 -121 -38 -20 -33 -22 -111 -5 -128 7 -7 28 -12 48 -12 20 0
41 5 48 12 9 9 12 9 12 0 0 -7 13 -12 30 -12 17 0 30 2 30 4 0 2 11 58 25 126
14 68 25 127 25 131 0 5 -20 9 -45 9 -25 0 -45 -4 -45 -10z m0 -135 c0 -48
-19 -93 -42 -101 -31 -9 -41 9 -34 61 12 80 76 114 76 40z"/>
<path d="M1822 2883 c-12 -24 -4 -43 18 -43 23 0 44 26 36 45 -7 21 -43 19
-54 -2z"/>
<path d="M2370 2891 c0 -5 5 -11 11 -13 8 -3 3 -42 -14 -126 l-24 -123 30 3
c30 3 32 6 44 67 15 72 26 91 56 91 18 0 19 -4 14 -57 -4 -32 -10 -68 -13 -80
-6 -21 -3 -23 40 -23 25 0 46 5 46 10 0 6 -6 10 -14 10 -11 0 -12 8 -5 38 12
53 11 106 -3 120 -15 15 -53 16 -79 1 -19 -10 -20 -8 -13 40 l7 51 -42 0 c-22
0 -41 -4 -41 -9z"/>
<path d="M1190 2880 c0 -5 7 -10 15 -10 8 0 15 -4 15 -9 0 -8 -22 -127 -36
-188 -2 -13 -11 -23 -19 -23 -7 0 -17 -4 -20 -10 -4 -6 20 -10 64 -10 41 0 71
4 71 10 0 6 -7 10 -15 10 -19 0 -19 11 0 102 23 115 25 118 40 118 7 0 17 5
20 10 4 6 -20 10 -64 10 -41 0 -71 -4 -71 -10z"/>
<path d="M2216 2845 c-4 -14 -13 -25 -21 -25 -18 0 -20 -17 -3 -22 9 -3 9 -21
-1 -76 -7 -39 -10 -76 -6 -82 12 -19 90 -12 110 10 22 24 2 28 -22 4 -28 -28
-36 -1 -21 72 13 64 16 69 41 72 34 4 36 22 2 22 -22 0 -25 3 -19 25 6 23 3
25 -24 25 -23 0 -31 -5 -36 -25z"/>
<path d="M1600 2811 c0 -5 5 -11 12 -13 10 -4 1 -85 -18 -150 -4 -14 1 -18 25
-18 25 0 32 5 37 28 17 75 27 108 36 120 15 17 58 15 58 -3 0 -22 17 -18 23 5
7 27 27 25 27 -2 -1 -13 -7 -51 -14 -85 l-14 -63 44 0 c40 0 60 13 33 22 -8 3
-7 26 5 82 9 43 16 80 16 82 0 2 -33 4 -73 4 -50 0 -80 -5 -95 -16 -17 -12
-22 -12 -20 -2 2 9 -11 14 -39 16 -24 2 -43 -1 -43 -7z"/>
<path d="M1930 2811 c0 -5 5 -11 12 -13 10 -4 1 -85 -18 -150 -4 -14 1 -18 25
-18 32 0 35 5 47 75 8 53 30 85 56 85 19 0 20 -4 15 -47 -3 -27 -9 -63 -13
-80 -6 -33 -6 -33 34 -33 23 0 44 5 47 10 3 6 -1 10 -10 10 -12 0 -15 5 -11
16 15 38 18 124 6 139 -14 17 -53 20 -80 5 -13 -7 -21 -7 -25 0 -8 13 -85 13
-85 1z"/>
<path d="M1218 2545 l-4 -35 48 0 c26 0 48 -3 48 -7 1 -5 -28 -153 -62 -330
l-63 -323 -52 0 c-36 0 -53 -4 -53 -12 0 -7 -3 -23 -6 -35 l-6 -23 141 0 c106
0 141 3 141 13 0 6 3 22 6 35 6 21 3 22 -45 22 -34 0 -51 4 -51 13 2 42 118
579 123 567 4 -8 35 -130 70 -270 l63 -255 69 0 69 0 174 268 c96 147 176 266
177 265 3 -3 -94 -500 -110 -565 -5 -20 -12 -23 -54 -23 -42 0 -49 -3 -55 -22
-13 -49 -18 -48 199 -48 157 0 205 3 205 13 0 6 3 22 6 35 6 21 3 22 -45 22
-28 0 -51 4 -51 8 0 8 115 589 125 630 5 19 12 22 54 22 50 0 61 9 61 51 0 18
-9 19 -163 19 l-162 0 -164 -255 c-90 -140 -165 -255 -166 -255 -2 0 -31 115
-66 255 l-64 255 -166 0 -167 0 -4 -35z"/>
<path d="M1572 1673 c-12 -24 -4 -43 18 -43 23 0 44 26 36 45 -7 21 -43 19
-54 -2z"/>
<path d="M1972 1673 c-12 -24 -4 -43 18 -43 23 0 44 26 36 45 -7 21 -43 19
-54 -2z"/>
<path d="M1150 1670 c0 -5 7 -10 16 -10 12 0 15 -6 11 -22 -3 -13 -13 -62 -23
-110 -14 -73 -20 -88 -35 -88 -11 0 -19 -4 -19 -10 0 -5 20 -10 45 -10 25 0
45 5 45 10 0 6 -7 10 -16 10 -10 0 -14 6 -10 18 3 9 10 46 16 82 18 100 21
101 44 10 18 -71 25 -86 44 -88 17 -3 32 13 76 82 31 47 57 86 60 86 2 0 0
-17 -4 -37 -5 -21 -13 -64 -20 -95 -7 -37 -16 -58 -25 -58 -8 0 -17 -4 -20
-10 -4 -6 20 -10 64 -10 41 0 71 4 71 10 0 6 -7 10 -15 10 -19 0 -19 11 0 102
23 115 25 118 40 118 7 0 17 5 20 10 4 6 -15 10 -50 10 l-56 0 -51 -80 c-34
-54 -54 -77 -59 -68 -4 7 -15 43 -25 80 l-16 68 -54 0 c-30 0 -54 -4 -54 -10z"/>
<path d="M1536 1601 c-4 -5 -1 -11 6 -13 10 -4 9 -23 -3 -86 l-16 -82 44 0
c39 0 59 13 32 22 -8 3 -7 26 5 82 9 43 16 80 16 82 0 8 -79 4 -84 -5z"/>
<path d="M1680 1601 c0 -5 5 -11 12 -13 10 -4 1 -85 -18 -150 -4 -14 1 -18 25
-18 32 0 35 5 47 75 8 53 30 85 56 85 19 0 20 -4 15 -47 -3 -27 -9 -63 -13
-80 -6 -33 -6 -33 34 -33 23 0 44 5 47 10 3 6 -1 10 -10 10 -12 0 -15 5 -11
16 15 38 18 124 6 139 -14 17 -53 20 -80 5 -13 -7 -21 -7 -25 0 -8 13 -85 13
-85 1z"/>
<path d="M1936 1601 c-4 -5 -1 -11 6 -13 10 -4 9 -23 -3 -86 l-16 -82 44 0
c39 0 59 13 32 22 -8 3 -7 26 5 82 9 43 16 80 16 82 0 8 -79 4 -84 -5z"/>
<path d="M1138 1315 l-4 -35 48 0 c26 0 48 -3 48 -7 1 -5 -28 -153 -62 -330
l-63 -323 -52 0 c-36 0 -53 -4 -53 -12 0 -7 -3 -23 -6 -35 l-6 -23 141 0 c106
0 141 3 141 13 0 6 3 22 6 35 6 21 3 22 -45 22 -34 0 -51 4 -51 13 2 42 118
579 123 567 4 -8 35 -130 70 -270 l63 -255 69 0 69 0 174 268 c96 147 176 266
177 265 3 -3 -94 -500 -110 -565 -5 -20 -12 -23 -54 -23 -42 0 -49 -3 -55 -23
-13 -48 -18 -47 199 -47 157 0 205 3 205 13 0 6 3 22 6 35 6 21 3 22 -45 22
-28 0 -51 4 -51 8 0 8 115 589 125 630 5 19 12 22 54 22 50 0 61 9 61 51 0 18
-9 19 -163 19 l-162 0 -164 -255 c-90 -140 -165 -255 -166 -255 -2 0 -31 115
-66 255 l-64 255 -166 0 -167 0 -4 -35z"/>
<path d="M1462 393 c-12 -24 -4 -43 18 -43 23 0 44 26 36 45 -7 21 -43 19 -54
-2z"/>
<path d="M1950 400 c0 -5 7 -10 15 -10 12 0 14 -7 9 -27 -11 -53 -14 -57 -26
-45 -28 28 -95 6 -121 -38 -20 -33 -22 -111 -5 -128 16 -16 80 -16 96 0 9 9
12 9 12 0 0 -7 13 -12 30 -12 17 0 30 2 30 4 0 2 11 58 25 126 14 68 25 127
25 131 0 5 -20 9 -45 9 -25 0 -45 -4 -45 -10z m0 -135 c0 -48 -19 -93 -42
-101 -31 -9 -41 9 -34 61 12 80 76 114 76 40z"/>
<path d="M1040 390 c0 -5 7 -10 16 -10 12 0 15 -6 11 -22 -3 -13 -13 -62 -23
-110 -14 -73 -20 -88 -35 -88 -11 0 -19 -4 -19 -10 0 -5 20 -10 45 -10 25 0
45 5 45 10 0 6 -7 10 -16 10 -10 0 -14 6 -10 18 3 9 10 46 16 82 18 100 21
101 44 10 18 -71 25 -86 44 -88 17 -3 32 13 76 82 31 47 57 86 60 86 2 0 0
-17 -4 -37 -5 -21 -13 -64 -20 -95 -7 -37 -16 -58 -25 -58 -8 0 -17 -4 -20
-10 -4 -6 20 -10 64 -10 41 0 71 4 71 10 0 6 -7 10 -15 10 -19 0 -19 11 0 102
23 115 25 118 40 118 7 0 17 5 20 10 4 6 -15 10 -50 10 l-56 0 -51 -80 c-34
-54 -54 -77 -59 -68 -4 7 -15 43 -25 80 l-16 68 -54 0 c-30 0 -54 -4 -54 -10z"/>
<path d="M1426 321 c-4 -5 -1 -11 6 -13 10 -4 9 -23 -3 -86 l-16 -82 44 0 c39
0 59 13 32 22 -8 3 -7 26 5 82 9 43 16 80 16 82 0 8 -79 4 -84 -5z"/>
<path d="M1570 321 c0 -5 5 -11 12 -13 10 -4 1 -85 -18 -150 -4 -14 1 -18 25
-18 32 0 35 5 47 75 8 53 30 85 56 85 19 0 20 -4 15 -47 -3 -27 -9 -63 -13
-80 -6 -33 -6 -33 34 -33 23 0 44 5 47 10 3 6 -1 10 -10 10 -12 0 -15 5 -11
16 15 38 18 124 6 139 -14 17 -53 20 -80 5 -13 -7 -21 -7 -25 0 -8 13 -85 13
-85 1z"/>
<path d="M2080 321 c0 -5 5 -11 12 -13 10 -4 1 -85 -18 -150 -4 -14 1 -18 25
-18 32 0 35 5 47 75 8 52 29 85 54 85 24 0 24 -12 6 -98 l-14 -63 31 3 c30 3
32 6 44 67 15 72 26 91 56 91 21 0 21 -6 1 -122 l-7 -38 41 0 c22 0 44 5 47
10 3 6 -1 10 -10 10 -13 0 -16 6 -11 25 16 63 18 115 6 130 -16 19 -59 19 -87
0 -18 -13 -22 -13 -33 0 -14 17 -53 20 -80 5 -13 -7 -21 -7 -25 0 -8 13 -85
13 -85 1z"/>
<path d="M2513 310 c-84 -51 -98 -170 -20 -170 18 0 38 5 45 12 9 9 12 9 12 0
0 -7 16 -12 40 -12 37 0 55 13 28 22 -9 3 -8 23 4 81 8 42 13 79 10 82 -13 13
-90 3 -119 -15z m57 -67 c-14 -63 -31 -89 -55 -79 -28 11 -15 93 20 124 37 32
48 17 35 -45z"/>
<path d="M2696 321 c-4 -5 -1 -11 6 -13 9 -3 8 -29 -6 -108 -10 -58 -20 -110
-23 -117 -4 -9 5 -13 25 -13 31 0 33 2 47 64 4 22 9 26 18 17 6 -6 26 -11 44
-11 43 0 78 34 92 88 20 74 -24 120 -91 94 -16 -6 -28 -6 -28 -1 0 12 -77 12
-84 0z m144 -60 c0 -40 -32 -96 -55 -96 -18 0 -20 6 -18 55 1 43 6 58 23 72
28 23 50 9 50 -31z"/>
</g>
</svg>
